<svg id="Layer_1" data-name="Layer 1" xmlns="http://www.w3.org/2000/svg" viewBox="0 0 1039.33 751.23"><defs><style>.cls-1{fill:none;stroke:#1a1a1a;stroke-miterlimit:10;stroke-width:11px;}</style></defs><path class="cls-1" d="M1025.07,591.81q3.89,17.19,5.18,25.39,10.63,67.2-21.93,111.92t-92,44.72q-10.54,0-52.71-2.34-43-2.34-69.12-2.35-3.13,0-12.77.79a600.91,600.91,0,0,0,32.9-118l9.07-9.38q197-196.88,177.09-322.65-7.85-49.6-47.69-49.61-46.87,0-93.87,53.51-33.42,38.3-50.18,89.06t-26.2,141.8q-8.28,76.17-15.6,118.75-31.75,28.92-98.67,72.66Q594,795.33,554.53,795.33q-40.24,0-46.36-38.68-2.48-15.61,3-43t31.72-132.82q47.58-190.62,52.66-289.45-34.87-3.12-78.23-3.13-91.8,0-153.83,14.07A400.38,400.38,0,0,0,245.42,350Q180.11,389.09,150.51,444T131,562.51q10.76,68,55.91,101.57-16.15-45.32-20.41-72.27Q152,500,193.3,430.48,227,374.64,296.14,342.2t155.42-32.42q73.83,0,79.58,36.33,6.18,39.06-36,217.18L470.39,668.37Q454,737.91,458.92,768.76q3.58,22.66,22.82,36.92t47,14.26q32.82,0,91-27t103.34-62.89l30.21-23.83q1.71-1.54,8.66-7-5.25,41-20.92,102.35,23,0,93.41,7.81,30.63,3.51,50.95,3.51,77.73,0,129.67-66.79,43.83-56.25,35.06-111.72Q1045.78,606.66,1025.07,591.81Zm-201.8,5.86q14.47-110.94,24.61-158t27.9-85.35q28.26-60.93,57.56-60.94,25,0,31,37.89,9.27,58.61-32.6,143.36a497.84,497.84,0,0,1-112.2,148.83Z" transform="translate(-17.79 -135.9)"/><path class="cls-1" d="M856.1,142.57l-2.34,13.68q-26.57,141-60.55,237.5a983.93,983.93,0,0,1-89.45,187.11Q520.55,881.63,303,881.64A332.35,332.35,0,0,1,180.71,858.2Q121,834.76,81.89,795.31q-58.6-59.38-58.6-149.22,0-88.67,69.34-148t172.85-59.37q164.45,0,357.42,134l-43.36,28.91q-78.12-56.64-177.34-93.95t-172.27-37.3q-80.48,0-132.81,43.36T44.78,623.82q0,43.36,21.29,86.14a223.39,223.39,0,0,0,58.78,73.63q32,26.56,86.33,43.36a364.8,364.8,0,0,0,108.21,16.8q178.5,0,306.64-174.61Q674.86,602,716.46,508.39t57.61-172.85l17.58-87.89,10.55-53.12q1.17-5.07,2.73-15.24A257.24,257.24,0,0,1,769.39,182l-36.33-.78a124.76,124.76,0,0,0-34.38,4.68q-25.77,7.42-41.4,27.74a73.58,73.58,0,0,0-15.63,46.09,89,89,0,0,0,12.7,46.1q12.69,21.48,45.5,52.73,32,30.46,32,55.86,0,34-24.42,66.6t-49.41,32.62q-19.92,0-32.42-14.26t-12.5-37.3a80.32,80.32,0,0,1,.78-9q25.38,35.94,50.39,35.94,36.71,0,36.72-38.28,0-23-38.28-58.21Q615.47,349.22,615.48,293q0-61.71,45.12-106.64T767.43,141.4l35.94.78,33.2.78Q848.68,143,856.1,142.57Z" transform="translate(-17.79 -135.9)"/></svg>